<svg width="20" height="20" fill="#666666" xmlns="http://www.w3.org/2000/svg">
<path d="M10 0C4.47656 0 0 4.47656 0 10V19.375C0 19.7214 0.278646 20 0.625 20H5.41667C6.33594 20 7.08333 19.2526 7.08333 18.3333V12.9167C7.08333 11.9974 6.33594 11.25 5.41667 11.25H1.875V10C1.875 5.51302 5.51302 1.875 10 1.875C14.487 1.875 18.125 5.51302 18.125 10V11.25H14.5833C13.6641 11.25 12.9167 11.9974 12.9167 12.9167V18.3333C12.9167 19.2526 13.6641 20 14.5833 20H19.375C19.7214 20 20 19.7214 20 19.375V10C20 4.47656 15.5234 0 10 0ZM5.20833 13.125V18.125H1.875V13.125H5.20833ZM18.125 18.125H14.7917V13.125H18.125V18.125Z" />
</svg>
