<svg width="19" height="21" fill="#666666" xmlns="http://www.w3.org/2000/svg">
<path fill-rule="evenodd" clip-rule="evenodd" d="M9.71661 0.250946C8.02876 0.250946 6.41003 0.921445 5.21653 2.11494C4.02303 3.30844 3.35253 4.92717 3.35253 6.61503C3.35253 9.66311 2.70061 11.5559 2.09981 12.6574C1.79816 13.2104 1.50443 13.5732 1.30039 13.7886C1.19813 13.8965 1.11778 13.9681 1.06939 14.0084C1.04519 14.0286 1.02896 14.041 1.02196 14.0462L1.01936 14.0481C0.693443 14.272 0.549216 14.6815 0.664081 15.0609C0.780178 15.4443 1.13359 15.7066 1.53423 15.7066H17.899C18.2996 15.7066 18.6531 15.4443 18.7691 15.0609C18.884 14.6815 18.7398 14.272 18.4139 14.0481L18.4113 14.0462C18.4043 14.041 18.388 14.0286 18.3638 14.0084C18.3155 13.9681 18.2351 13.8965 18.1328 13.7886C17.9288 13.5732 17.6351 13.2104 17.3334 12.6574C16.7326 11.5559 16.0807 9.66311 16.0807 6.61503C16.0807 4.92717 15.4102 3.30844 14.2167 2.11494C13.0232 0.921445 11.4045 0.250946 9.71661 0.250946ZM15.9449 13.8883H3.48829C3.55747 13.7749 3.62691 13.6549 3.6961 13.5281C4.45904 12.1294 5.17084 9.93102 5.17084 6.61503C5.17084 5.40941 5.64977 4.25318 6.50227 3.40068C7.35477 2.54818 8.511 2.06925 9.71661 2.06925C10.9222 2.06925 12.0785 2.54818 12.931 3.40068C13.7835 4.25318 14.2624 5.40941 14.2624 6.61503C14.2624 9.93102 14.9742 12.1294 15.7371 13.5281C15.8063 13.6549 15.8758 13.7749 15.9449 13.8883ZM8.93034 17.9778C8.6784 17.5434 8.12206 17.3956 7.68774 17.6475C7.25341 17.8995 7.10556 18.4558 7.35751 18.8901C7.59726 19.3035 7.9414 19.6465 8.35545 19.885C8.7695 20.1235 9.23894 20.249 9.71676 20.249C10.1946 20.249 10.664 20.1235 11.0781 19.885C11.4921 19.6465 11.8363 19.3035 12.076 18.8901C12.328 18.4558 12.1801 17.8995 11.7458 17.6475C11.3115 17.3956 10.7551 17.5434 10.5032 17.9778C10.4233 18.1155 10.3085 18.2299 10.1705 18.3094C10.0325 18.3889 9.87604 18.4307 9.71676 18.4307C9.55749 18.4307 9.40101 18.3889 9.26299 18.3094C9.12498 18.2299 9.01026 18.1155 8.93034 17.9778Z"/>
</svg>
