<svg width="28" height="27" viewBox="0 0 28 27" fill="none" xmlns="http://www.w3.org/2000/svg">
<path d="M10.2844 1.27795C8.87088 1.27795 7.68083 2.27285 7.40853 3.61004C7.22457 3.58195 7.03875 3.56772 6.85274 3.56772C4.83666 3.56772 3.19632 5.19415 3.19632 7.19356C3.19632 7.37025 3.20936 7.54713 3.23527 7.72215C2.08064 8.12784 1.27491 9.23067 1.27491 10.4684C1.27491 11.0883 1.47378 11.6859 1.84039 12.183C1.83778 12.186 1.83573 12.1893 1.83312 12.1925C1.77535 12.2619 1.72092 12.3337 1.66892 12.4065C1.65699 12.4231 1.64507 12.4397 1.63332 12.4566C1.58431 12.5277 1.5379 12.6005 1.49428 12.6747C1.48347 12.6931 1.47304 12.712 1.46241 12.7307C1.41973 12.8064 1.3791 12.8831 1.3422 12.9615C1.33511 12.9765 1.32896 12.9916 1.32207 13.0066C1.28777 13.082 1.25609 13.1583 1.22701 13.236C1.22254 13.2482 1.21732 13.26 1.21303 13.2722C1.18284 13.3559 1.15656 13.4411 1.1327 13.5271C1.12767 13.5452 1.12245 13.5631 1.11761 13.5812C1.09543 13.6662 1.0766 13.7522 1.06057 13.839C1.05722 13.8575 1.05405 13.876 1.05088 13.8945C1.03597 13.9834 1.02386 14.073 1.01566 14.1634C1.01435 14.1773 1.01361 14.1911 1.01267 14.205C1.00503 14.3013 1.00019 14.3979 1 14.4955C1 14.4957 1 14.4957 1 14.4959C1 14.4959 1 14.4959 1 14.4961C1 14.4961 1 14.4961 1 14.4963C1 14.4963 1 14.4963 1 14.4964C1.00037 15.7107 1.60798 16.8295 2.60922 17.4998C2.31622 18.0306 2.16283 18.6237 2.16283 19.2358C2.16283 21.2353 3.80317 22.8617 5.81926 22.8617C5.87051 22.8617 5.92233 22.8606 5.97414 22.8584C6.27403 24.4292 7.59845 25.6442 9.22985 25.7922C9.23898 25.7932 9.24811 25.7935 9.25725 25.7943C9.35901 25.8028 9.46171 25.8081 9.56571 25.8081C11.582 25.8081 13.2221 24.1817 13.2221 22.1823V4.19094C13.2221 2.58465 11.9042 1.27795 10.2844 1.27795ZM12.4818 22.1825C12.4818 23.7769 11.1736 25.0742 9.56571 25.0742C9.46953 25.0742 9.37448 25.069 9.28054 25.06C9.21885 25.0539 9.15828 25.0433 9.09752 25.0334C9.06788 25.0285 9.03769 25.0254 9.00843 25.0199C8.92586 25.0036 8.84441 24.9836 8.76427 24.9605C8.75924 24.9591 8.75383 24.9579 8.74861 24.9565C7.97364 24.7286 7.32447 24.1863 6.96178 23.477C6.9573 23.4679 6.95302 23.4589 6.94854 23.4498C6.91443 23.3814 6.88294 23.3114 6.85423 23.24C6.84659 23.221 6.84007 23.2016 6.83299 23.1824C6.80894 23.1186 6.78658 23.0543 6.76701 22.9885C6.75881 22.9608 6.75247 22.9321 6.74501 22.904C6.72936 22.8443 6.71407 22.7843 6.70233 22.7231C6.696 22.69 6.69208 22.6562 6.68686 22.6227C6.67773 22.5634 6.66823 22.5042 6.66282 22.444C6.65499 22.3577 6.6494 22.2708 6.6494 22.1825C6.6494 20.588 7.95742 19.2909 9.56552 19.2909C9.76998 19.2909 9.93567 19.1266 9.93567 18.9239C9.93567 18.7211 9.76998 18.5568 9.56552 18.5568C7.56845 18.5568 5.94134 20.1529 5.91077 22.1261C4.26614 22.1801 2.90295 20.8599 2.90295 19.2358C2.90295 18.6429 3.08318 18.0726 3.42445 17.5865C3.48502 17.5004 3.50534 17.3924 3.48036 17.2904C3.45539 17.1884 3.38754 17.1017 3.29379 17.0525C2.33561 16.5491 1.74031 15.5695 1.74012 14.4959C1.74012 13.8418 1.96042 13.2206 2.36282 12.7129C2.37456 12.6983 2.38444 12.6824 2.39637 12.668C2.40923 12.6525 2.42414 12.6382 2.43719 12.6231C2.48676 12.5656 2.53671 12.5085 2.59114 12.4543C2.59151 12.454 2.5917 12.4536 2.59207 12.4532C3.14301 11.9058 3.87605 11.6042 4.65643 11.6042C5.21538 11.6042 5.75906 11.7622 6.22911 12.061C7.06988 12.5957 7.57161 13.506 7.57161 14.4963C7.57161 14.699 7.73731 14.8633 7.94177 14.8633C8.14623 14.8633 8.31192 14.699 8.31192 14.4963C8.31192 13.2546 7.6827 12.1133 6.62871 11.4432C6.03937 11.0684 5.35722 10.8702 4.65643 10.8702C3.81752 10.8702 3.0228 11.1489 2.37736 11.6611C2.14252 11.3079 2.01466 10.8957 2.01466 10.4688C2.01466 9.45228 2.74136 8.55737 3.74223 8.34094C3.83989 8.31987 3.92488 8.26036 3.97781 8.17626C4.03056 8.09198 4.04677 7.99015 4.02254 7.89385C3.96514 7.66504 3.93606 7.42958 3.93606 7.19412C3.93606 5.59965 5.24427 4.30239 6.85218 4.30239C7.0203 4.30239 7.18823 4.31847 7.35411 4.3473C7.43649 5.88095 8.71693 7.10466 10.2838 7.10466C10.4883 7.10466 10.654 6.94036 10.654 6.73761C10.654 6.53486 10.4883 6.37055 10.2838 6.37055C9.07217 6.37055 8.0864 5.39302 8.0864 4.19149C8.0864 4.17412 8.0836 4.15749 8.08118 4.14085C8.08696 4.1183 8.09162 4.09557 8.09292 4.07191C8.15629 2.91714 9.11858 2.01244 10.2838 2.01244C11.4955 2.01244 12.4813 2.98996 12.4813 4.19149V22.1825H12.4818Z" stroke-miterlimit="10"/>
<path d="M26.9744 14.4959C26.9744 13.6416 26.6783 12.8319 26.1341 12.183C26.5009 11.686 26.6997 11.0883 26.6997 10.4684C26.6997 9.23067 25.894 8.12784 24.7392 7.72215C24.7653 7.54713 24.7781 7.37025 24.7781 7.19356C24.7781 5.19415 23.1378 3.56772 21.1217 3.56772C20.9357 3.56772 20.7499 3.58195 20.5659 3.61004C20.2938 2.27285 19.1036 1.27795 17.6902 1.27795C16.0704 1.27795 14.7527 2.58465 14.7527 4.19094V22.1825C14.7527 24.1819 16.3928 25.8083 18.4089 25.8083C20.1669 25.8083 21.6777 24.5393 22.0005 22.8584C24.0878 22.9456 25.8118 21.2859 25.8118 19.2358C25.8118 18.6235 25.6586 18.0304 25.3654 17.4998C26.3668 16.8295 26.9744 15.7107 26.9744 14.4959ZM24.6807 17.0525C24.5869 17.1017 24.5192 17.1884 24.4943 17.2904C24.4693 17.3924 24.4896 17.5002 24.5502 17.5867C24.8915 18.0726 25.0717 18.6428 25.0717 19.2358C25.0717 20.9669 23.524 22.3538 21.7355 22.0973C21.6337 22.0828 21.5321 22.1104 21.4523 22.1732C21.3726 22.2363 21.3224 22.3288 21.3139 22.4296C21.1873 23.9126 19.9115 25.0742 18.4091 25.0742C16.8012 25.0742 15.4932 23.7769 15.4932 22.1825V4.19094C15.4932 2.98941 16.4788 2.01188 17.6904 2.01188C18.8557 2.01188 19.818 2.91659 19.8815 4.07136C19.8875 4.18225 19.9438 4.28446 20.0347 4.34915C20.1255 4.41402 20.2412 4.43453 20.349 4.40533C20.6015 4.33658 20.8617 4.30165 21.1221 4.30165C22.73 4.30165 24.0382 5.59892 24.0382 7.19338C24.0382 7.42884 24.0091 7.6643 23.9517 7.89311C23.9275 7.98941 23.9437 8.09124 23.9964 8.17552C24.0492 8.25962 24.1342 8.31913 24.232 8.3402C25.2331 8.55663 25.9596 9.45154 25.9596 10.4681C25.9596 11.0157 25.7514 11.5404 25.3734 11.9455C25.2385 12.0902 25.2428 12.3146 25.3829 12.454C25.9318 12.9998 26.2341 13.7248 26.2341 14.4955C26.2343 15.5695 25.639 16.5493 24.6807 17.0525Z" stroke-miterlimit="10"/>
<path d="M18.3171 18.7872V16.2618C18.3171 16.059 18.1514 15.8947 17.947 15.8947C17.7425 15.8947 17.5768 16.059 17.5768 16.2618V18.7872C17 18.9478 16.5752 19.4729 16.5752 20.0957C16.5752 20.8457 17.1904 21.456 17.947 21.456C18.7033 21.456 19.3187 20.8459 19.3187 20.0957C19.3187 19.4729 18.8942 18.948 18.3171 18.7872ZM17.947 20.7219C17.5986 20.7219 17.3155 20.4412 17.3155 20.0957C17.3155 19.7503 17.5988 19.4695 17.947 19.4695C18.2953 19.4695 18.5784 19.7505 18.5784 20.0957C18.5786 20.4412 18.2953 20.7219 17.947 20.7219Z" stroke-miterlimit="10"/>
<path d="M21.9063 11.5063C21.8244 11.5063 21.7447 11.5148 21.6668 11.5282L19.1812 7.04686C19.2684 6.86814 19.3187 6.66872 19.3187 6.45709C19.3187 5.70709 18.7035 5.0968 17.947 5.0968C17.1906 5.0968 16.5752 5.7069 16.5752 6.45709C16.5752 7.07995 17 7.60484 17.5768 7.76564V13.5428C17.5768 13.7456 17.7425 13.9099 17.947 13.9099C18.1514 13.9099 18.3171 13.7456 18.3171 13.5428V7.76564C18.4371 7.73218 18.5501 7.68284 18.6545 7.62037L20.9993 11.8485C20.7149 12.0979 20.5343 12.4612 20.5343 12.8665C20.5343 13.6166 21.1495 14.2268 21.9061 14.2268C22.6624 14.2268 23.2778 13.6167 23.2778 12.8665C23.2778 12.1165 22.6626 11.5063 21.9063 11.5063ZM17.947 7.08327C17.5986 7.08327 17.3155 6.80234 17.3155 6.45709C17.3155 6.11166 17.5988 5.83092 17.947 5.83092C18.2953 5.83092 18.5784 6.11185 18.5784 6.45709C18.5786 6.80253 18.2953 7.08327 17.947 7.08327ZM21.9063 13.4927C21.5579 13.4927 21.2748 13.2118 21.2748 12.8665C21.2748 12.5211 21.5581 12.2404 21.9063 12.2404C22.2546 12.2404 22.5377 12.5213 22.5377 12.8665C22.5377 13.2118 22.2544 13.4927 21.9063 13.4927Z" stroke-miterlimit="10"/>
</svg>