<svg width="20" height="20" fill="#666666" xmlns="http://www.w3.org/2000/svg">
<path fill-rule="evenodd" clip-rule="evenodd" d="M10.1562 1.78409C5.72227 1.78409 2.12784 5.37852 2.12784 9.81249C2.12784 14.2464 5.72227 17.8409 10.1562 17.8409C14.5902 17.8409 18.1846 14.2464 18.1846 9.81249C18.1846 5.37852 14.5902 1.78409 10.1562 1.78409ZM0.34375 9.81249C0.34375 4.3932 4.73695 0 10.1562 0C15.5755 0 19.9687 4.3932 19.9687 9.81249C19.9687 15.2318 15.5755 19.625 10.1562 19.625C4.73695 19.625 0.34375 15.2318 0.34375 9.81249ZM10.3866 6.26564C9.97133 6.19441 9.54425 6.27245 9.18101 6.48593C8.81777 6.69941 8.5418 7.03456 8.40199 7.43201C8.2385 7.89676 7.72922 8.14097 7.26447 7.97749C6.79973 7.814 6.55551 7.30472 6.719 6.83997C6.99863 6.04506 7.55056 5.37477 8.27705 4.94781C9.00353 4.52085 9.85768 4.36477 10.6882 4.50723C11.5187 4.64969 12.272 5.08149 12.8147 5.72614C13.3573 6.37066 13.6543 7.18637 13.6532 8.02885C13.6528 9.39399 12.6406 10.2955 11.9179 10.7774C11.5293 11.0364 11.147 11.2269 10.8654 11.3521C10.7234 11.4152 10.6037 11.4631 10.5175 11.496C10.4744 11.5124 10.4394 11.5252 10.4139 11.5342L10.3829 11.5451L10.373 11.5484L10.3695 11.5496L10.3682 11.5501C10.3679 11.5502 10.3671 11.5504 10.085 10.7042L10.3671 11.5504C9.89968 11.7062 9.3945 11.4536 9.23871 10.9863C9.08302 10.5192 9.33517 10.0144 9.80195 9.85821L9.81619 9.85322C9.82991 9.84834 9.8524 9.84018 9.8824 9.82875C9.94255 9.80583 10.032 9.77012 10.1408 9.72175C10.361 9.62389 10.6478 9.47986 10.9282 9.29291C11.5434 8.88281 11.8691 8.44652 11.8691 8.02804L11.8691 8.02671C11.8697 7.60538 11.7212 7.19742 11.4499 6.87509C11.1785 6.55277 10.8019 6.33687 10.3866 6.26564ZM10.1562 13.3808C9.66355 13.3808 9.26416 13.7802 9.26416 14.2728C9.26416 14.7655 9.66355 15.1649 10.1562 15.1649H10.1651C10.6578 15.1649 11.0572 14.7655 11.0572 14.2728C11.0572 13.7802 10.6578 13.3808 10.1651 13.3808H10.1562Z" />
</svg>
